<svg id="Layer_1" enable-background="new 0 0 512 512" height="512" viewBox="0 0 512 512" width="512" xmlns="http://www.w3.org/2000/svg"><g><g><path d="m7.5 76.797v283.663c0 38.272 31.465 69.297 70.28 69.297h221.576l84.55 74.742v-74.742h50.314c38.814 0 70.28-31.026 70.28-69.297v-283.663c0-38.272-31.465-69.297-70.28-69.297h-356.44c-38.814 0-70.28 31.025-70.28 69.297z" fill="#fff5b5"/><g><path d="m434.221 7.5h-40c38.814 0 70.28 31.025 70.28 69.297v283.663c0 38.272-31.465 69.297-70.28 69.297h40c38.814 0 70.28-31.026 70.28-69.297v-283.663c-.001-38.272-31.466-69.297-70.28-69.297z" fill="#ffef8f"/></g><g><circle cx="253.809" cy="218.14" fill="#ffd54d" r="151.183"/><path d="m253.809 66.958c-6.78 0-13.456.447-20 1.312 74.042 9.786 131.183 73.155 131.183 149.871s-57.14 140.085-131.183 149.871c6.544.865 13.22 1.312 20 1.312 83.496 0 151.183-67.687 151.183-151.183-.001-83.497-67.687-151.183-151.183-151.183z" fill="#ffc919"/><g><path d="m335.327 227.517c0 44.926-36.497 81.345-81.519 81.345s-81.519-36.419-81.519-81.345z" fill="#fff"/></g></g></g><g><g><path d="m383.908 512c-1.796 0-3.57-.645-4.969-1.881l-82.423-72.861h-218.736c-42.888 0-77.78-34.451-77.78-76.797v-221.604c0-4.143 3.358-7.5 7.5-7.5s7.5 3.357 7.5 7.5v221.604c0 34.075 28.163 61.797 62.78 61.797h221.576c1.83 0 3.597.669 4.967 1.881l72.083 63.721v-58.102c0-4.143 3.358-7.5 7.5-7.5h50.314c34.617 0 62.779-27.722 62.779-61.797v-283.664c.001-34.075-28.162-61.797-62.778-61.797h-356.441c-34.617 0-62.78 27.722-62.78 61.797v22.356c0 4.143-3.358 7.5-7.5 7.5s-7.5-3.357-7.5-7.5v-22.356c0-42.346 34.892-76.797 77.78-76.797h356.44c42.888 0 77.78 34.451 77.78 76.797v283.664c0 42.346-34.892 76.797-77.779 76.797h-42.814v67.242c-.001 3.904-3.624 7.5-7.499 7.5z"/></g><g><g><path d="m253.809 376.822c-87.498 0-158.683-71.185-158.683-158.682 0-87.498 71.185-158.684 158.683-158.684s158.683 71.186 158.683 158.684c0 32.499-9.767 63.75-28.246 90.372-2.361 3.403-7.034 4.248-10.438 1.885-3.403-2.361-4.247-7.035-1.885-10.438 16.727-24.1 25.568-52.392 25.568-81.819 0-79.228-64.456-143.684-143.683-143.684s-143.683 64.456-143.683 143.684c0 79.227 64.456 143.682 143.683 143.682 33.92 0 66.85-12.051 92.723-33.933 3.164-2.676 7.896-2.28 10.57.884 2.675 3.162 2.279 7.895-.883 10.569-28.577 24.17-64.947 37.48-102.409 37.48z"/></g><g><g><g><path d="m228.271 194.468c-4.142 0-7.5-3.357-7.5-7.5 0-9.714-7.903-17.616-17.617-17.616-9.713 0-17.616 7.902-17.616 17.616 0 4.143-3.358 7.5-7.5 7.5s-7.5-3.357-7.5-7.5c0-17.984 14.631-32.616 32.616-32.616s32.617 14.632 32.617 32.616c0 4.142-3.358 7.5-7.5 7.5z"/></g><g><path d="m329.579 194.468c-4.142 0-7.5-3.357-7.5-7.5 0-9.714-7.903-17.616-17.616-17.616-9.714 0-17.617 7.902-17.617 17.616 0 4.143-3.358 7.5-7.5 7.5s-7.5-3.357-7.5-7.5c0-17.984 14.632-32.616 32.617-32.616s32.616 14.632 32.616 32.616c0 4.142-3.358 7.5-7.5 7.5z"/></g></g><g><path d="m253.809 316.362c-49.085 0-89.019-39.855-89.019-88.845 0-4.143 3.358-7.5 7.5-7.5h163.037c4.142 0 7.5 3.357 7.5 7.5 0 48.99-39.933 88.845-89.018 88.845zm-73.64-81.344c3.781 37.207 35.364 66.345 73.64 66.345s69.859-29.138 73.64-66.345z"/></g></g></g></g></g></svg>